<svg xmlns:xlink="http://www.w3.org/1999/xlink" xmlns="http://www.w3.org/2000/svg" version="1.1" viewBox="0 0 1024 1024" height="1024px" width="1024px">
    <title>笔芯</title>
    <defs>
        <linearGradient id="linearGradient-1" y2="94.9598849%" x2="50%" y1="0.455533649%" x1="50%">
            <stop offset="0%" stop-color="#9ED7FC"></stop>
            <stop offset="100%" stop-color="#DDEBF8"></stop>
        </linearGradient>
        <linearGradient id="linearGradient-2" y2="94.9598849%" x2="50%" y1="0.455533649%" x1="50%">
            <stop offset="0%" stop-color="#9ED7FC"></stop>
            <stop offset="100%" stop-color="#DDEBF8"></stop>
        </linearGradient>
        <linearGradient id="linearGradient-3" y2="94.9598849%" x2="50%" y1="0.455533649%" x1="50%">
            <stop offset="0%" stop-color="#9ED7FC"></stop>
            <stop offset="100%" stop-color="#DDEBF8"></stop>
        </linearGradient>
    </defs>
    <g fill-rule="evenodd" fill="none" stroke-width="1" stroke="none" id="笔芯">
        <rect height="1024" width="1024" y="0" x="0" id="矩形"></rect>
        <g transform="translate(102.000000, 45.000000)">
            <g fill-rule="nonzero" transform="translate(55.000000, 846.000000)" id="脚">
                <path fill="#FFFFFF" d="M58,3 C88.1960784,3 113,20.2307692 113,41.5 C113,62.7692308 88.1960784,80 58,80 C27.5343137,80 3,62.7692308 3,41.5 C3,20.2307692 27.5343137,3 58,3 L58,3 Z"></path>
                <path fill="#000000" id="脚备份" d="M57.5,1 C47.2742057,1 37.6567477,2.88755437 29.3210386,6.21465467 L27.7238616,6.87646485 C11.125355,14.0116892 -3.55271368e-14,26.9729683 -3.55271368e-14,42 C-3.55271368e-14,64.8983339 25.833024,83 57.5,83 C88.9896233,83 115,64.8356338 115,42 C115,19.1643662 88.9896233,1 57.5,1 Z M57.5,6 C86.5328396,6 110,22.3882238 110,42 C110,61.6117762 86.5328396,78 57.5,78 C28.2915454,78 5,61.6792789 5,42 C5,22.3207211 28.2915454,6 57.5,6 Z"></path>
                <path fill="#FFFFFF" d="M275,3 C305.196078,3 330,20.2307692 330,41.5 C330,62.7692308 305.196078,80 275,80 C244.803922,80 220,62.7692308 220,41.5 C220,20.2307692 244.803922,3 275,3 Z"></path>
                <path fill="#000000" id="脚备份-2" d="M275.5,1.42108547e-14 C244.010377,1.42108547e-14 218,18.1643662 218,41 C218,63.8356338 244.010377,82 275.5,82 C306.989623,82 333,63.8356338 333,41 C333,18.1643662 306.989623,1.42108547e-14 275.5,1.42108547e-14 Z M275.5,5 C304.53284,5 328,21.3882238 328,41 C328,60.6117762 304.53284,77 275.5,77 C246.46716,77 223,60.6117762 223,41 C223,21.3882238 246.46716,5 275.5,5 Z"></path>
            </g>
            <g fill-rule="nonzero" transform="translate(6.000000, 495.000000)" id="衣服">
                <path fill="url(#linearGradient-1)" d="M321.876165,4.89769717 C326.479609,11.4040875 340.831523,13.030685 340.831523,13.030685 C413.674259,34.4475531 416.652958,94.3605638 416.652958,94.3605638 C428.296964,120.115025 405.821325,132.314507 405.821325,132.314507 C374.680378,151.833678 351.663157,143.158491 351.663157,143.158491 L354.371065,151.291479 L381.450149,362.749164 C320.522211,419.13788 259.594272,381.726135 259.594272,381.726135 L210.851921,243.465342 L169.150132,389.045825 C108.763776,412.902589 44.586347,375.490845 44.586347,375.490845 L59.2090522,259.731317 L72.7485941,151.291479 C34.0255043,156.171272 21.298335,137.736499 21.298335,137.736499 C-5.50995797,119.030627 5.0508847,94.3605638 5.0508847,94.3605638 C32.4007593,16.0127806 94.4118612,13.030685 94.4118612,13.030685 C116.345919,10.0485895 108.763776,3 108.763776,3 L321.876165,4.89769717 Z"></path>
                <path fill="#000000" id="衣服备份" d="M106.537901,4.36699649 C106.879493,4.707989 107.103849,5.22119353 106.93946,5.5542651 C106.667732,6.10481778 105.808161,6.8061175 104.121146,7.53842592 C101.796553,8.54749794 98.3166857,9.4070399 93.5749667,10.0516594 L92.9049495,10.0954306 L91.9204762,10.1961874 L91.1041617,10.2975902 L89.66174,10.5049012 C89.4878596,10.531777 89.3096259,10.5599654 89.1272225,10.5894986 C85.5239798,11.1729038 81.5206321,12.1015105 77.2168116,13.4515257 C64.9529931,17.2984196 52.6983347,23.7462363 41.2687576,33.4026661 L40.1669764,34.3458143 C24.4429533,47.9831575 11.6581055,66.7379965 2.8048618,91.3015023 L2.22617105,92.9402629 L2.19014153,93.0239748 C1.66664694,94.3353195 1.10350498,96.1953847 0.664911034,98.5166527 C-0.00817234622,102.078961 -0.208523372,105.889664 0.241410302,109.843267 L0.353041781,110.731333 C1.77655742,121.070691 7.45025002,130.652004 18.4224213,138.61254 L19.0159801,139.033677 L19.2823108,139.380731 C20.8787587,141.394357 23.7575454,144.011685 28.1242666,146.582258 L28.9305455,147.046003 C38.696136,152.533012 51.7137908,155.201927 68.3392845,153.730201 L69.3576681,153.632407 L56.217424,258.863321 L41.5985773,374.582961 C41.4716214,375.587916 41.9570311,376.571517 42.8314793,377.081229 L43.6343881,377.534013 L44.5796776,378.048195 C45.0456976,378.29844 45.5374004,378.557983 46.0542554,378.826046 L47.6797471,379.655012 L49.4529702,380.530424 C54.7130362,383.086558 60.6671074,385.640178 67.2011351,388.022846 C97.8179548,399.187429 129.49774,402.807743 159.202075,394.31394 C162.709531,393.311001 166.163531,392.14068 169.560841,390.798616 L169.825591,390.675888 C170.422714,390.355862 170.870252,389.805943 171.059219,389.146317 L210.573126,251.203827 L256.680271,381.973201 C256.87275,382.519134 257.246828,382.98225 257.739814,383.284935 L258.738439,383.861458 L259.739263,384.405245 L260.866308,384.989543 C261.064552,385.090047 261.267969,385.192049 261.476516,385.295453 C264.43598,386.762846 267.842532,388.22658 271.653156,389.590911 C285.976795,394.719254 301.869992,397.089865 318.635935,395.166537 C340.79994,392.623962 362.376538,382.728722 382.597577,364.015688 C383.196641,363.4613 383.490779,362.651044 383.387035,361.840982 L356.314257,150.449567 L356.205321,149.972291 L354.953379,146.215656 L355.94956,146.395202 C370.123067,148.80275 387.534877,145.88168 406.589452,133.939218 C408.457166,132.931149 411.337592,130.823713 414.21119,127.635643 L414.707644,127.073179 C422.208142,118.393248 424.544006,107.162829 418.766093,93.6978613 L418.567036,93.2482423 L418.484262,92.3414209 L418.373612,91.3896625 L418.22219,90.2744945 C418.193336,90.0753309 418.162619,89.869595 418.129958,89.6574049 C417.646313,86.5153662 416.885184,83.0248077 415.786161,79.2721908 C412.653231,68.5747869 407.442152,57.882895 399.667424,47.9045838 C386.443251,30.9322969 367.195741,17.836087 340.987169,10.1309904 L340.575899,10.0465428 L340.492985,10.0366212 C338.47224,9.78815227 335.647681,9.24912659 332.708711,8.34623567 C328.517045,7.0585 325.315097,5.34863193 323.672941,3.34301051 L323.383455,2.96352149 C322.915258,2.30183682 322.158048,1.90557117 321.348075,1.89835919 L108.285313,9.8815259e-05 C105.982505,-0.0192473568 104.859407,2.80678771 106.537901,4.36699649 Z M6.82482057,94.8618113 L6.84857954,94.8030632 C15.6902033,69.4915522 28.5785902,50.6336676 44.4862841,37.1920103 C55.3798941,27.9871455 67.0429341,21.8497741 78.6968121,18.1937073 C82.7641829,16.9176875 86.5340828,16.0431117 89.9068293,15.4969519 L91.2453557,15.2950727 L92.4480835,15.1420596 L93.5317669,15.0324802 L94.0105186,14.9978399 C104.26912,13.6126643 109.689083,11.2596173 111.440103,7.71136134 L111.639663,7.2624355 C111.936907,6.512569 112.059002,5.75574298 112.029956,5 L320.126352,6.85609945 C322.577049,9.61396879 326.430091,11.6129767 331.254963,13.0954436 C333.130531,13.6717217 335.046126,14.1319232 336.923938,14.490325 L338.079793,14.6990173 L339.08244,14.8586831 L339.780026,14.9522285 L339.593726,14.8984204 C364.795083,22.3084141 383.152625,34.8007821 395.730305,50.94554 C403.092503,60.3956854 408.026279,70.5199967 410.98935,80.6387939 C412.023927,84.1718445 412.737891,87.4465466 413.188735,90.3758921 C413.306058,91.1381958 413.398592,91.8337325 413.469391,92.4578995 L413.575548,93.5209514 L413.605273,93.9338352 C413.621005,94.2502958 413.696081,94.5609655 413.826582,94.849625 C419.349931,107.066967 417.294651,116.686152 410.509573,124.214781 C409.081683,125.799148 407.548679,127.152604 406.020071,128.271148 L405.304636,128.778565 L404.712753,129.170949 L404.260077,129.448198 C404.197101,129.484806 404.140577,129.516612 404.090832,129.543615 C385.26972,141.33553 368.530771,143.799551 355.268289,141.094151 L354.260791,140.875202 L353.414395,140.667004 L352.45398,140.391895 L352.02456,140.244636 L351.765708,140.161726 C349.871496,139.660601 348.100789,141.477555 348.74303,143.406581 L351.369944,151.295991 L378.252498,361.227151 L376.722544,362.602712 C358.019788,379.133664 338.291663,387.886667 318.084849,390.205036 C302.1472,392.033594 287.00924,389.775326 273.365179,384.889628 C269.744434,383.593103 266.516476,382.20592 263.726545,380.822398 L263.159994,380.53836 L262.118789,379.998639 L261.13506,379.462381 L212.705831,242.078056 L212.585508,241.789318 C211.605711,239.772287 208.550363,239.96155 207.902778,242.222386 L166.546707,386.596369 L167.700483,386.155316 C164.456253,387.437081 161.157103,388.555088 157.805694,389.513536 C129.276804,397.672338 98.609437,394.167244 68.8972104,383.331049 C63.1675955,381.241431 57.898527,379.018098 53.1755942,376.783226 L50.7475685,375.609838 L49.1085576,374.787502 C48.8476474,374.654419 48.5929116,374.523387 48.3444177,374.394503 L46.7808659,373.568319 L61.1897215,259.501935 L74.7294582,151.05452 C74.9335835,149.419564 73.5444679,148.029984 71.9116416,148.23576 C53.8489476,150.512105 40.3149795,147.892567 30.6424926,142.197856 C28.1497318,140.730234 26.1277779,139.169172 24.5402844,137.622513 C24.1965327,137.287603 23.9041452,136.98535 23.6613413,136.721557 L23.2413173,136.246973 C23.182156,136.176996 23.1283721,136.111722 23.0798996,136.051367 L22.8522743,135.749979 C22.6810011,135.501883 22.4667246,135.286509 22.2195965,135.114063 C11.4950604,127.630447 6.29528555,118.776942 5.20872646,109.227961 C4.81931211,105.80568 4.99325235,102.496863 5.57685181,99.4077299 C5.95140492,97.4251293 6.42130468,95.8728329 6.82482057,94.8618113 Z"></path>
            </g>
            <g fill-rule="nonzero" transform="translate(0.000000, 125.000000)" id="帽子">
                <path fill="url(#linearGradient-2)" d="M219.5,3 C339.11625,3 436,89.6013986 436,196.5 C436,303.398601 339.11625,390 219.5,390 C99.88375,390 3,303.398601 3,196.5 C3,89.6013986 99.88375,3 219.5,3 Z"></path>
                <path fill="#000000" id="帽子备份" d="M219,0 C98.0661058,0 0,87.6501787 0,196 C0,304.349821 98.0661058,392 219,392 C339.933894,392 438,304.349821 438,196 C438,87.6501787 339.933894,0 219,0 Z M219,5 C337.290773,5 433,90.5456217 433,196 C433,301.454378 337.290773,387 219,387 C100.709227,387 5,301.454378 5,196 C5,90.5456217 100.709227,5 219,5 Z"></path>
                <path fill="#64BEF8" id="蓝色" d="M239,3.81016043 C215.912026,74.8342246 221.887737,104 221.887737,104 C208.306576,104 199.071386,103.729947 199.071386,103.729947 C197.71327,62.4117647 216.183649,3 216.183649,3 L239,3.81016043 Z"></path>
                <path fill="#000000" id="蓝色备份" d="M238.5619,1.81154068 L215.776979,1.00161691 C214.636289,0.961069396 213.609942,1.68674278 213.272875,2.77213187 L212.653659,4.82609578 L211.730348,7.99555511 L210.869629,11.0407285 L210.56944,12.1220091 C208.548575,19.4338192 206.528116,27.3875767 204.642079,35.7130872 C201.724087,48.5939497 199.400795,61.168536 197.892578,72.9984611 C196.41869,84.5591249 195.769877,95.0699572 196.072852,104.297408 C196.113346,105.530717 197.042594,106.537228 198.2437,106.705332 L198.577323,106.730451 L204.861832,106.864631 L208.321396,106.916294 L211.943974,106.956628 L215.718698,106.984429 L219.634702,106.998489 L221.380867,107 C222.979825,107.001341 224.177951,105.542714 223.858792,103.983293 L223.798465,103.646487 L223.683193,102.829051 L223.595769,102.073747 L223.550413,101.632425 C223.357804,99.6803875 223.23496,97.303281 223.217488,94.4880395 L223.216832,93.2245408 C223.222135,92.1579383 223.240761,91.06868 223.273042,89.9566471 L223.355912,87.7021801 C223.372791,87.3213628 223.391212,86.9380062 223.411188,86.5521059 L223.549794,84.2061444 C223.576037,83.8100516 223.603859,83.4114063 223.633273,83.0102041 L223.828951,80.5722726 L224.06342,78.0727637 L224.337272,75.5114659 C224.582057,73.3512471 224.868486,71.1264449 225.198104,68.836509 L225.614475,66.0572865 C225.687358,65.5888603 225.761994,65.11782 225.838394,64.6441611 L226.318071,61.7707498 L226.840694,58.8342818 C226.93141,58.3396041 227.023939,57.8422901 227.118296,57.3423356 L227.70645,54.3108865 C227.808162,53.8003521 227.911725,53.2871683 228.017152,52.7713308 L228.672174,49.644425 L229.372517,46.4536173 C229.49305,45.9164791 229.615497,45.3766695 229.739869,44.8341842 L230.509306,41.5471274 L231.325547,38.1956404 C231.885441,35.9397921 232.476935,33.6408494 233.100818,31.2985306 L234.061036,27.7524851 L235.070432,24.1411642 C235.41516,22.9264878 235.768184,21.700897 236.129602,20.4643565 L237.239138,16.7218507 L238.399634,12.9134355 L239.611685,9.03889961 L240.875883,5.09803168 C241.391659,3.50965779 240.237982,1.87111948 238.5619,1.81154068 Z M217.491311,6 L235,6.62200304 L234.117827,9.41883469 L232.916572,13.3150619 L231.767053,17.1454472 C231.392437,18.4112925 231.026346,19.6661998 230.668681,20.9102049 L229.620869,24.6095491 C229.450414,25.2206673 229.282041,25.8290688 229.115739,26.4347582 L228.142662,30.0363839 C227.984589,30.6312424 227.828562,31.2233977 227.674568,31.8128542 L226.774903,35.3172434 L225.923444,38.7570761 L225.119601,42.1325665 C224.989563,42.6897983 224.861484,43.244358 224.735353,43.7962502 L224.001833,47.0756287 C223.76505,48.1581085 223.535958,49.2299539 223.314459,50.2912004 L222.672644,53.4431796 L222.075797,56.5317803 C221.21396,61.1172548 220.501908,65.4895503 219.930706,69.6519202 L219.570673,72.3957691 C219.28787,74.6564527 219.047927,76.8525675 218.84931,78.9846715 L218.630709,81.5125069 L218.451193,83.979106 L218.310173,86.3846832 C218.289845,86.7805394 218.271097,87.173862 218.253916,87.5646555 L218.169538,89.8791014 C218.136655,91.0211848 218.117656,92.1405859 218.112211,93.2374251 L218.112886,94.5306935 L218.125008,95.6294059 C218.159508,97.7846656 218.254711,99.6875647 218.395733,101.349429 L218.454049,102 L213.798782,101.97893 L210.11802,101.944846 L204.894637,101.871821 L201.013585,101.796023 L201.003329,100.756324 C200.947707,92.6434937 201.590149,83.5428254 202.852546,73.6283004 C204.338749,61.9560604 206.633962,49.5174751 209.519197,36.7648459 C211.179557,29.4261168 212.94557,22.3768382 214.723037,15.8090127 L215.686808,12.2983235 L216.537526,9.28461419 L217.491311,6 Z"></path>
            </g>
            <g fill-rule="nonzero" transform="translate(74.000000, 228.000000)" id="脸">
                <path fill="#F8E3DE" id="椭圆-5" d="M145.635585,3 C224.274976,3 288,57.9558011 288,125.364641 C288,193.044199 224.274976,248 145.635585,248 C66.9961941,248 3,193.044199 3,125.364641 C3,57.9558011 66.9961941,3 145.635585,3 Z"></path>
                <path fill="#000000" id="椭圆-5备份" d="M145.135561,0 C65.2150732,0 0,55.9644072 0,124.864664 C0,193.992695 65.1655728,250 145.135561,250 C225.055094,250 290,194.035461 290,124.864664 C290,55.9217105 225.005719,0 145.135561,0 Z M145.13561,5 C222.397291,5 285,58.8634701 285,124.864616 C285,191.09565 222.445282,245 145.13561,245 C67.7730506,245 5,191.049484 5,124.864616 C5,58.9095692 67.8211723,5 145.13561,5 Z"></path>
            </g>
            <g fill-rule="nonzero" transform="translate(122.000000, 280.000000)" id="左眼">
                <path fill="#000000" id="形状-11" d="M4.8125869,1.77635684e-15 C32.6520653,0.824828263 49.028229,17.3213935 49.028229,17.3213935 C52.0305257,23.0951914 47.1176766,20.3457638 47.1176766,20.3457638 C29.6497686,10.9977102 0.445609898,2.19954203 0.445609898,2.19954203 C-1.7378786,0.274942754 4.8125869,1.77635684e-15 4.8125869,1.77635684e-15 Z"></path>
                <path fill="#000000" id="椭圆-1" d="M28.0935781,37.0551954 C37.3533418,36.2547101 45.7960675,44.2595627 46.8854515,54.6658711 C47.9748354,65.3390079 41.1661857,74.4111741 31.9064219,74.944831 C22.3743122,75.7453162 13.9315865,67.7404636 13.1145485,57.0673268 C12.0251646,46.6610185 18.8338143,37.5888522 28.0935781,37.0551954 L28.0935781,37.0551954 Z"></path>
                <path fill="#FFFFFF" id="椭圆-2" d="M33.4760166,46.0182162 C36.3579253,45.7536536 38.7158505,48.3992796 38.9778422,52.1031561 C39.2398339,55.8070326 37.1439004,58.9817838 34.5239834,58.9817838 C31.9040664,59.2463464 29.2841495,56.6007204 29.0221578,52.8968439 C28.7601661,49.1929674 30.8560996,46.0182162 33.4760166,46.0182162 Z"></path>
                <path fill="#FFFFFF" id="椭圆-3-拷贝" d="M35.6315789,63 C36.9473684,63 38,63.5 38,64.5 C38,65.25 36.9473684,66 35.6315789,66 C34.3157895,66 33,65.25 33,64.5 C33,63.5 34.3157895,63 35.6315789,63 Z"></path>
            </g>
            <g fill-rule="nonzero" transform="translate(257.000000, 280.000000)" id="右眼">
                <path fill="#000000" id="形状-11" d="M49.6395219,2.19954203 C49.6395219,2.19954203 20.5454367,10.9977102 2.87145966,20.3457638 C2.87145966,20.3457638 -2.02287243,23.0951914 0.968108293,17.3213935 C0.968108293,17.3213935 17.2825486,0.824828263 45.2890045,1.77635684e-15 C45.2890045,1.77635684e-15 51.5428733,0.274942754 49.6395219,2.19954203 L49.6395219,2.19954203 Z"></path>
                <path fill="#000000" id="椭圆-1" d="M36.8863051,57.0673268 C35.804132,67.7404636 27.4172908,75.7453162 18.2188198,74.944831 C8.74980556,74.4111741 2.25676721,65.3390079 3.068397,54.6658711 C4.15057006,44.2595627 12.5374113,36.2547101 21.7358823,37.0551954 C31.2048965,37.5888522 37.9684781,46.6610185 36.8863051,57.0673268 L36.8863051,57.0673268 Z"></path>
                <path fill="#FFFFFF" id="椭圆-2" d="M25.9778422,52.8968439 C25.7158505,56.6007204 23.3579253,59.2463464 20.4760166,58.9817838 C17.8560996,58.9817838 15.7601661,55.8070326 16.0221578,52.1031561 C16.2841495,48.3992796 18.6420747,45.7536536 21.5239834,46.0182162 C24.1439004,46.0182162 26.2398339,49.1929674 25.9778422,52.8968439 Z"></path>
                <path fill="#FFFFFF" id="椭圆-3-拷贝" d="M14.6315789,63 C15.9473684,63 17,63.5 17,64.5 C17,65.25 15.9473684,66 14.6315789,66 C13.3157895,66 12,65.25 12,64.5 C12,63.5 13.3157895,63 14.6315789,63 Z"></path>
            </g>
            <g fill-rule="nonzero" transform="translate(78.000000, 349.000000)" id="口罩">
                <path fill="#64BEF8" id="帽子" d="M0,30.7206707 C0,30.7206707 67.6190476,30.4496454 111.977143,10.1227544 C111.977143,10.1227544 142.811429,-12.1013132 173.375238,9.30967871 C173.375238,9.30967871 209.078095,26.3842672 284,22.5899142 C284,22.5899142 273.180952,123.682319 143.352381,131 C143.352381,131 24.8838095,128.831798 0,30.7206707 Z"></path>
                <path fill="#000000" id="帽子备份-2" d="M173.375238,9.30967871 L174.245381,9.69693038 L175.484215,10.2095475 L177.265975,10.898602 L179.084063,11.557757 L180.677578,12.1055098 L183.109947,12.8953423 L185.165723,13.5243701 L187.42056,14.1779854 L189.875029,14.8500412 L191.622528,15.3052877 L193.459175,15.7641767 L196.381664,16.4553561 L198.441915,16.9153834 C198.792764,16.9918776 199.147352,17.0682579 199.505682,17.1444864 L201.700604,17.5997329 L203.985516,18.0495155 L206.360587,18.492013 C206.763955,18.5650543 207.171087,18.6377161 207.581985,18.7099606 L210.092612,19.1381154 L212.693821,19.5544318 C213.576006,19.6910285 214.473316,19.8253486 215.38578,19.9570886 L218.168657,20.3442643 L221.042623,20.7141379 L224.007844,21.0648879 C226.015115,21.2919419 228.083336,21.5050328 230.212733,21.7017321 L233.452737,21.9841837 C234.000394,22.0291088 234.551881,22.0729336 235.107202,22.1156201 L238.485167,22.3577757 L241.955317,22.5707907 C254.26236,23.2632222 268.2664,23.3867283 284,22.5899142 L283.859785,23.6396209 L283.658226,24.9044015 L283.345664,26.6203757 L283.066965,27.9994322 C282.963968,28.4891618 282.850584,29.0084157 282.725949,29.5556352 L282.317422,31.2796309 C276.249234,55.944879 249.81181,124.999502 143.352381,131 L141.683627,130.935963 L140.010377,130.841179 L137.811906,130.684049 L136.071432,130.537157 L134.122974,130.351302 L131.976708,130.121983 L129.642815,129.844699 L127.131472,129.514949 C126.698692,129.455369 126.258944,129.393415 125.812437,129.328993 L123.054004,128.912104 C88.0750537,123.386793 18.414019,103.322905 0,30.7206707 L3.08572581,30.6670296 L6.38051894,30.567106 L9.91921898,30.4237365 L14.1125087,30.2112849 L16.9168071,30.0450209 L20.9643812,29.7720096 L24.2140259,29.5249648 L28.8066241,29.1336283 L32.4284586,28.7898763 L34.9200194,28.5351549 L38.7629142,28.1125756 L41.389407,27.802594 L45.4160374,27.2930616 L48.152579,26.9224028 L50.926173,26.5259563 L53.7328379,26.1028553 L56.5685924,25.6522331 L59.4294554,25.173223 L62.3114454,24.6649583 C62.7933165,24.5777615 63.2759019,24.4893096 63.7591189,24.3995846 L66.6653346,23.8458127 C67.1507456,23.750923 67.6366222,23.6547241 68.1228814,23.5571979 L71.0443649,22.9559688 C84.6931885,20.0745564 98.5119402,16.1242378 110.679839,10.7086238 L111.986362,10.116153 L112.871067,9.52189145 L113.704847,8.99669662 L114.792832,8.34666541 L115.768458,7.79243159 L117.27256,6.98479054 L118.108366,6.55865597 L118.998019,6.12186035 L119.940025,5.67756492 L120.932892,5.22893092 L121.975126,4.77911959 L123.065234,4.33129216 L124.201724,3.88860987 C124.394921,3.81543388 124.589989,3.74260398 124.786895,3.67018605 L125.990157,3.2411488 C126.194296,3.17064213 126.400213,3.10067914 126.607875,3.03132568 L127.87455,2.62304625 C128.303593,2.4897425 128.739371,2.35940377 129.181634,2.23255692 L130.527635,1.86301892 L131.911058,1.51759349 C132.144664,1.46220759 132.379768,1.4079581 132.616337,1.35491087 L134.053096,1.05158162 C145.199301,-1.15525528 159.315886,-0.539377584 173.375238,9.30967871 Z M123.577459,9.7371479 C121.230041,10.7579573 119.119259,11.8493716 117.286353,12.933759 L116.237682,13.5716828 L115.500304,14.0487777 L115.187887,14.2651587 C114.922607,14.4566113 114.639372,14.6216855 114.342194,14.7580433 C94.9024041,23.67785 70.0777151,29.4915127 42.3516244,32.8603561 C32.500959,34.0572558 22.9054366,34.8622232 13.8850009,35.3473341 L11.1375394,35.4858096 L8.52561849,35.5994667 L7,35.6564901 L7.37543686,36.8558403 C17.7241416,69.3971086 39.8419428,92.3868512 70.5341475,107.455444 L71.8937682,108.115101 C87.594944,115.643036 104.470752,120.621409 121.354937,123.526063 C127.266187,124.542999 132.749777,125.227017 137.659801,125.640445 L139.613428,125.792367 L141.370585,125.905005 L143.497739,126 L145.079035,125.906653 C196.967457,122.608594 232.722291,103.987724 255.495366,74.9639518 L256.266696,73.9704821 C265.041776,62.5482027 271.21012,50.3020955 275.21589,38.0645878 C276.302801,34.744108 277.164976,31.6145867 277.829019,28.7263285 L278,27.9509206 L277.045622,27.9879868 C245.096279,29.0931618 218.133793,26.5565628 196.05874,21.5648993 L194.412273,21.1859399 C187.771575,19.63041 182.087048,17.9568973 177.349361,16.2740084 L176.074199,15.8128265 L174.407917,15.1815728 L173.461061,14.8045466 L172.286252,14.3106592 L171.666387,14.0326325 C171.573952,13.9898751 171.48695,13.9489409 171.405379,13.9098793 C171.155687,13.7903105 170.916247,13.6502866 170.689494,13.4912309 L169.962639,12.9903995 C154.91778,2.80958817 138.883971,3.08088385 123.577459,9.7371479 Z"></path>
            </g>
            <g fill-rule="nonzero" transform="translate(68.000000, 262.000000)" id="护目镜">
                <path fill="#F8E3DE" fill-opacity="0.1" d="M17.6090989,16.6862284 C17.6090989,16.6862284 160.724161,-15.6799959 288.689046,19.1340941 C288.689046,19.1340941 308.167845,28.3815868 301.674912,43.6127512 C301.674912,43.6127512 294.91144,95.017931 268.398631,111.609021 C268.398631,111.609021 216.725707,157.030529 176.144876,96.6498415 C176.144876,96.6498415 162.888472,75.7069904 145.573984,92.2980802 C145.573984,92.2980802 102.017226,160.022365 37.0878975,106.441304 C37.0878975,106.441304 7.05808304,71.3552292 3,39.2609899 C3,39.2609899 3,19.6780643 17.6090989,16.6862284 L17.6090989,16.6862284 Z"></path>
                <path fill="#000000" id="护目镜备份" d="M104.474515,1.89302984 C81.7520026,3.53189748 60.4149648,6.10514407 41.0796925,9.22390564 L37.4593273,9.81842812 L33.9869798,10.4093289 L30.6654312,10.994857 L27.4974624,11.5732613 L24.4858545,12.1427906 L20.4643439,12.9372428 L17.7867614,13.4942067 L16.5715524,13.7589259 C9.55652246,15.1928865 4.90550837,20.0219868 2.27925753,26.9197888 C1.35995491,29.3343211 0.74463535,31.8675551 0.373578936,34.4050786 C0.129622765,36.0734085 0.0230428101,37.5006101 0,38.5699403 L0,38.7291338 L0.0199022874,39.0806711 C0.344541801,41.6443413 0.833993094,44.2675364 1.48070096,46.9462074 C4.23796006,58.3668044 9.7410304,70.4792802 17.1790426,82.78432 C21.003174,89.1107534 25.0972742,95.0851224 29.1924015,100.528399 L29.9011082,101.464962 L31.2641376,103.234905 L32.5484262,104.863077 L34.1946223,106.887691 L34.688562,107.474579 L34.9998171,107.77986 C63.1814494,131.001408 89.8604999,134.116055 113.957402,122.28788 C122.577643,118.05656 130.309076,112.15245 137.095636,105.240414 L137.958523,104.35124 C141.634844,100.518148 144.492887,96.9558206 146.488903,94.0873385 L146.988221,93.356733 L146.794584,93.5371418 C153.220417,87.3889232 159.088949,86.5460368 164.739736,89.4088945 C166.859022,90.4825885 168.842329,92.0399537 170.634159,93.9007264 C171.664923,94.9711503 172.500984,95.9986225 173.117332,96.8607555 L173.493944,97.4084066 C180.567173,107.918824 188.235197,115.723421 196.451546,121.066978 C216.052062,133.814305 236.984039,132.00833 256.756126,121.395187 C260.194598,119.549504 263.306158,117.57205 266.040738,115.591249 C266.762082,115.068741 267.419331,114.573033 268.009787,114.110862 L269.23438,113.121563 L269.357652,113.015019 L269.180733,113.130828 C281.179108,105.633678 290.086508,91.2563195 296.500911,72.5536587 C298.751402,65.9918388 300.538894,59.3175216 301.91489,52.8428003 C302.310456,50.9814693 302.651967,49.2282216 302.942569,47.6031555 L303.319639,45.3943887 L303.567783,43.7646411 L303.432761,44.1021691 C307.11919,35.467362 304.039659,27.8124771 296.945098,21.5949502 C295.262172,20.1200688 293.469229,18.8373181 291.67551,17.7464603 L290.803537,17.2308381 L290.058007,16.8157122 L289.454272,16.5018021 C289.366318,16.4579584 289.284912,16.4183619 289.210374,16.3830278 L288.792696,16.2286767 C232.513134,0.940011743 169.435135,-2.79227317 104.474515,1.89302984 Z M284.70578,20.310955 L287.313877,21.0083639 L288.070041,21.4124743 L288.748231,21.8031161 C288.871364,21.8760164 288.999327,21.952792 289.131787,22.0334113 C290.691927,22.9829595 292.252844,24.1005821 293.700184,25.3699932 C299.143878,30.1444671 301.398848,35.4712721 299.115749,41.4896617 L298.872262,42.0938111 C298.812554,42.2337782 298.765596,42.3787276 298.731881,42.5268758 L298.68308,42.8122352 L298.475778,44.219852 L298.29633,45.3248088 L297.963271,47.217944 L297.551132,49.3769774 L297.231094,50.9546421 C297.17468,51.2264146 297.116717,51.5025229 297.057189,51.7828494 C295.720797,58.0761358 293.984652,64.5637989 291.80478,70.9246874 C285.730276,88.6501471 277.376137,102.145041 266.576586,108.898389 L266.249489,109.141839 L265.484464,109.776264 C264.821721,110.309989 264.041127,110.908008 263.149575,111.554311 C260.588879,113.41061 257.664974,115.27026 254.434086,117.005874 C236.115294,126.846618 217.046782,128.493104 199.224087,116.892927 C191.930179,112.145574 185.031255,105.234903 178.604991,95.959444 L177.613974,94.501521 C176.817032,93.3197471 175.702589,91.9036744 174.280319,90.4255247 C172.122932,88.1833769 169.704759,86.2830533 167.030584,84.9271764 C159.482966,81.1003355 151.308678,82.2753119 143.32983,89.915424 L143.12761,90.1332634 L142.914823,90.4306426 L142.498181,91.0452155 L141.87585,91.9236543 C141.762958,92.0796703 141.645504,92.2403708 141.523522,92.4055752 L140.737564,93.449405 L139.844573,94.5926659 C137.991884,96.9234874 135.878309,99.3342577 133.514947,101.743199 C127.09927,108.282606 119.80975,113.853604 111.743656,117.816014 L110.872344,118.236467 C89.0612339,128.572113 65.127282,125.709664 39.2062087,104.77326 L38.341043,104.067731 L37.0415011,102.48836 L35.8352312,100.976618 C35.6271096,100.712582 35.4155541,100.442578 35.2007212,100.166713 L33.8736489,98.4420517 C33.6463331,98.1431727 33.4160531,97.8386474 33.1829656,97.5285831 C29.1834265,92.2082039 25.18286,86.3657581 21.4519702,80.18875 C14.2575543,68.2773914 8.95614957,56.5996612 6.33713469,45.7431868 L5.9926206,44.2483672 C5.66605349,42.7610617 5.39347194,41.2964228 5.17617748,39.8555686 L5,38.5803676 L5.03269627,37.8153483 C5.04168453,37.6652792 5.05245602,37.5085367 5.06514437,37.3455361 L5.16534582,36.2957556 C5.20712642,35.9230102 5.25764348,35.5285534 5.31796601,35.1157063 C5.63888815,32.9193164 6.16873436,30.7362646 6.94562929,28.6941673 C8.92350862,23.4952377 12.1444129,20.0174017 16.9546702,18.8064227 L18.8009363,18.3978698 L21.4316892,17.850256 L23.9711219,17.343447 L26.8750046,16.7840715 L29.9364563,16.2147944 L33.1526848,15.6373665 L36.5208976,15.0535385 L40.0383026,14.4650609 L41.8520794,14.1696256 C61.0554059,11.0697236 82.2555992,8.51098026 104.832585,6.8813349 C168.206437,2.30690211 229.739634,5.80949213 284.70578,20.310955 Z"></path>
            </g>
            <g fill-rule="nonzero" transform="translate(73.000000, 488.000000)" id="衣服线条">
                <path fill="#64BEF8" id="形状-16" d="M29.2530934,3.80506415 C29.2530934,3.80506415 132.267717,43.2532077 260.222722,3 C260.222722,3 260.764904,11.587351 267,15.8810265 C267,15.8810265 155.310461,62.3063927 26,17.4911548 C26,17.4911548 29.5241845,10.7822868 29.2530934,3.80506415 Z"></path>
                <path fill="#64BEF8" id="形状-14" d="M138,228.35974 C153.213498,136.052398 138,34 138,34 L154.043326,34 C165.660906,114.126021 153.213498,229.983916 153.213498,229.983916 L138.308753,277 L139.956704,254.165986 L138,228.35974 Z"></path>
                <path fill="#64BEF8" id="形状-13" d="M7.81449275,165.24945 C7.81449275,165.24945 146.278261,215.148089 286.371014,155 L288,169.565008 C288,169.565008 189.717874,231.331431 7,181.702515 L7.81449275,165.24945 Z"></path>
                <path fill="#000000" id="路径-2" d="M32.1377571,0.82336949 L29.7793221,3.58068112e-14 L28.4439819,3.67723406 L26.6518892,8.6702439 L25.8419592,10.960496 L24.394253,15.1287652 L23.0077084,19.2310774 L25.1788129,20.1343318 C35.7906224,24.5492111 48.0078339,28.1636531 61.5712658,31.0740002 C76.5435812,34.2866558 92.447852,36.5106539 109.149776,38.0208018 C113.958249,38.4555723 118.577562,38.8095931 123.368712,39.1245341 L131.510961,39.61637 L135.870223,39.8704668 L136.249823,41.5361067 C139.265178,55.0362646 141.288391,70.9587956 142.435112,88.8526189 C143.926035,112.117489 143.874248,136.389428 142.837962,161.600195 L142.536045,168.353392 L141.827392,182.149256 L138.348536,182.167315 C88.732779,182.231063 44.2042908,175.285517 4.75501683,161.341985 L1.79720299,160.296531 L1.40460379,163.401701 C1.31044736,164.146409 1.22028391,164.915677 1.13410566,165.709529 L0.887518673,168.164864 C0.691979513,170.272477 0.52129911,172.533893 0.375355744,174.949488 L0.212089694,177.922232 L0.0725244612,181.043133 L0,182.857247 L1.70247433,183.5 L3.71302118,184.240389 L5.82807723,184.981443 C6.18622585,185.103849 6.54719424,185.225703 6.91098263,185.347006 L9.12755457,186.068206 C9.877693,186.306401 10.6391131,186.542391 11.4118166,186.776178 L13.763779,187.470926 L16.1834521,188.152456 L18.6708461,188.820775 C19.0910557,188.931061 19.5140875,189.040796 19.9399416,189.149982 L22.5289363,189.798494 C22.9660806,189.905479 23.4060478,190.011914 23.8488379,190.1178 L26.5394563,190.746518 L29.2978366,191.362047 L32.1239893,191.964393 L35.0179245,192.553561 C35.5058961,192.650658 35.9966925,192.747206 36.4903137,192.843206 L39.485942,193.412619 C39.9908638,193.506424 40.4986109,193.599681 41.0091836,193.692389 L44.106528,194.24206 L47.2716961,194.778576 L50.5046981,195.301943 L53.8055442,195.812168 L57.1742448,196.309255 C57.7413501,196.391009 58.311283,196.472215 58.8840438,196.552874 L62.3545453,197.030266 L65.892927,197.494535 L69.499199,197.945687 L73.1733718,198.383728 L78.8119671,199.016217 L84.6033967,199.619237 L88.5492748,200.004889 L92.5631049,200.377458 L96.6448974,200.73695 L100.794662,201.083371 L105.01241,201.416725 L109.298151,201.73702 L113.651896,202.044261 L118.073654,202.338453 L122.563435,202.619603 L127.121252,202.887715 L134.085562,203.265452 L138.310692,203.475831 L135.387195,227.69034 L135.36954,227.942448 L134.545129,269.970359 L134.568979,270.368512 C135.411051,276.375832 135.352062,281.396761 134.421729,285.418836 L129.661166,306 L139.31121,286.768218 L139.656155,286.009772 L140.010937,285.161235 L140.375413,284.223752 L140.749439,283.198464 L141.132871,282.086516 L141.525565,280.889051 L141.927379,279.607212 L142.338169,278.242143 L142.757791,276.794988 L143.40347,274.472842 L143.844544,272.825471 L144.521729,270.208362 L144.983358,268.367922 L145.930387,264.462505 L146.90815,260.265328 L147.660952,256.931481 L148.68974,252.245734 L149.746104,247.293381 L151.082257,240.845471 L152.133452,235.630359 L153.595235,228.184531 L155.564035,217.822196 L157.043714,209.734423 L158.021758,204.13591 L158.137605,203.440555 L161.583707,203.150172 C214.594726,198.515352 257.794204,187.833371 291.187482,171.070648 L293,170.160802 L292.500222,168.199369 C291.541343,164.436151 290.72784,160.154189 290.061759,155.355851 L289.414838,150.398607 L286.324246,151.751276 C259.766913,163.374712 231.701883,171.606397 204.131221,176.788423 L199.909956,177.558562 L197.234456,178.021108 L194.579331,178.46038 L191.951109,178.876214 L189.356313,179.268445 L185.541067,179.81218 L183.058383,180.14469 L179.441891,180.598076 L177.112101,180.869841 L174.854886,181.117021 L171.619416,181.441338 L169.572187,181.62634 L167.62037,181.786186 L165.770491,181.920709 L164.029074,182.029748 L162.402644,182.113138 L160.897727,182.170715 L159.520846,182.202316 L158.799513,182.207209 L158.87778,181.526353 C159.161884,178.922608 159.414573,176.09004 159.637523,173.066159 L159.850622,169.979896 L160.044267,166.774429 C160.074941,166.230713 160.104819,165.682378 160.133911,165.129598 L160.299073,161.760952 L160.445713,158.29394 L160.574202,154.736899 L160.684912,151.098165 L160.778217,147.386073 L160.854488,143.60896 L160.914098,139.775161 L160.957418,135.893013 L160.984822,131.970851 L160.996899,126.030817 L160.975257,120.047644 L160.929649,114.799095 L160.843901,108.54888 L160.725408,102.341138 L160.575601,96.2078695 L160.346482,88.6947628 L160.131442,82.8460614 L159.825304,75.7899155 L159.480287,69.0751384 L159.255776,65.2361295 L158.937261,60.3669518 L158.59815,55.8122517 L158.421318,53.662831 L158.239873,51.6040298 L157.959447,48.69449 L157.767252,46.8797383 L157.471539,44.3550228 L157.26971,42.8093208 L157.06434,41.3782388 L156.887055,40.2559779 L157.535674,40.2900706 L159.040802,40.3399577 L160.605017,40.3608749 C161.401901,40.3640915 162.220951,40.3564453 163.062182,40.3379378 L164.774224,40.2864416 L166.545441,40.2059846 L168.375857,40.0965694 L170.265499,39.9581985 C170.585376,39.9327239 170.907722,39.9060429 171.232537,39.8781556 L173.211064,39.6963562 L175.248879,39.4856076 L177.346007,39.2459125 L179.502474,38.9772735 L181.718305,38.679693 C182.092559,38.6276847 182.469287,38.5744705 182.84849,38.5200506 L185.153414,38.1790631 L188.722234,37.6133296 L191.175773,37.2000097 L193.688802,36.7577614 L196.261346,36.2865873 L198.89343,35.78649 L201.58508,35.2574721 L204.336322,34.6995362 L208.574971,33.8084167 L211.4753,33.1781971 L214.435308,32.5190685 L217.45502,31.8310336 L222.096589,30.7447875 L226.872635,29.5935168 L231.783242,28.3772301 L236.828497,27.0959362 L242.008483,25.7496439 L245.536701,24.8160098 L249.124862,23.853494 L254.619555,22.3555727 L258.357686,21.320864 L262.15585,20.2572826 L267.965712,18.6077801 L271.572455,17.5756217 L269.256846,14.6308824 C268.88667,14.1601325 268.498226,13.6042748 268.092218,12.9639717 L267.470118,11.9402658 C266.94087,11.0345372 266.384724,9.99738009 265.803051,8.83008821 L265.092878,7.36695605 C264.972503,7.11271751 264.851129,6.85329427 264.728766,6.58869669 L263.982821,4.9391019 L263.213685,3.16581966 L261.923129,0.0834566759 L259.703927,0.80641219 C181.184733,26.3858238 105.358088,26.3858238 32.1377571,0.82336949 Z M258.937218,6 L259.333283,6.90189965 C260.455657,9.42674828 261.519332,11.59112 262.530606,13.400967 L263.114416,14.4139615 L258.948991,15.5896667 L253.448012,17.1192906 L246.31633,19.06134 L241.119892,20.4448011 L237.728181,21.3323152 L232.749546,22.6114026 L227.901702,23.8278769 L224.742509,24.6040789 L218.598716,26.0730201 L214.143737,27.1017059 L211.24659,27.7527296 L208.407742,28.3759428 L205.627218,28.971348 L202.905041,29.5389477 L198.931232,30.3382173 L196.355032,30.8363141 L193.837265,31.3066141 L191.377955,31.7491199 L188.977126,32.1638339 L185.485589,32.7338008 L183.23107,33.0790464 L181.035118,33.3965089 L177.851055,33.8206149 L175.801625,34.0686308 L173.810847,34.2888725 L171.878744,34.4813423 L170.005342,34.6460429 L168.190663,34.7829768 L166.434734,34.8921463 L164.737577,34.9735541 L163.099218,35.0272027 L161.51968,35.0530944 C161.261327,35.0550968 161.005425,35.0559427 160.751976,35.0556323 L159.260716,35.0398936 C158.529805,35.0250864 157.820974,34.9998728 157.134238,34.9642541 L155.790229,34.8791438 C155.571138,34.8626467 155.354504,34.8449935 155.140326,34.8261844 L153.88474,34.6994586 L150.246733,34.2822897 L151.146886,37.8260781 C151.311975,38.4760118 151.474869,39.2505062 151.635179,40.140865 L151.873655,41.5622144 C151.913062,41.8132266 151.952295,42.0712086 151.991347,42.3360245 L152.223456,44.0058393 L152.450952,45.8331447 L152.673542,47.8114184 L152.890932,49.9341381 L153.102828,52.1947814 L153.40973,55.8300858 L153.606607,58.4070031 L153.889603,62.4861448 L154.156933,66.8022385 L154.325961,69.8004038 L154.487293,72.8875752 L154.785691,79.3028471 L154.92217,82.617903 L155.110163,87.7064176 L155.277203,92.9144821 L155.422299,98.2200838 L155.544461,103.60121 L155.642696,109.035847 L155.716013,114.501982 L155.763421,119.977604 L155.783929,125.440698 L155.776545,130.869251 L155.740277,136.241252 L155.674135,141.534687 L155.612954,145.009125 L155.537761,148.432339 L155.448262,151.797807 L155.344164,155.099006 L155.225173,158.329415 L155.018119,163.028026 L154.86061,166.052921 L154.687179,168.984197 L154.497534,171.815332 L154.29138,174.539803 C154.219878,175.429458 154.145576,176.300248 154.068424,177.151087 L153.828372,179.642664 C153.745472,180.452513 153.659674,181.241324 153.570929,182.008009 L153.295803,184.240601 L152.94807,186.889671 L155.617013,187.084634 C155.89067,187.104625 156.18416,187.12105 156.496746,187.133933 L157.491059,187.161971 L158.595531,187.168874 L159.805746,187.15477 L161.117284,187.119784 L162.525725,187.064042 L164.026653,186.987671 L166.441789,186.834711 L168.154599,186.707319 L170.866845,186.47842 L173.737474,186.204525 L176.751572,185.886061 L179.894226,185.523455 L182.053384,185.257403 L184.258631,184.972049 L187.643254,184.508099 L189.944392,184.175039 L193.452139,183.640122 L197.013875,183.063193 L199.410997,182.655445 L201.821067,182.229339 L204.815683,181.678203 C230.786565,176.798995 257.19298,169.24618 282.429075,158.730346 L285.167896,157.572407 C285.653527,160.824028 286.207271,163.839713 286.83164,166.628823 L287,167.356318 L285.369006,168.149099 C252.511375,183.924151 210.16639,193.983315 158.339112,198.294732 L153.610978,198.673263 L152.971753,202.69629 L152.402431,206.018683 L151.023227,213.690302 L149.31266,222.831588 L148.060266,229.333637 L146.667022,236.383576 L145.97027,239.830005 L145.185277,243.645752 L144.08172,248.889668 L143.361277,252.232247 L142.653947,255.447221 L141.619233,260.02121 L140.948075,262.898748 L140.292742,265.63394 L139.456229,269 L140.254774,228.143721 L143.81677,198.637763 L136.461376,198.287494 L129.499681,197.921617 L122.690829,197.526778 L118.236524,197.247471 L113.850174,196.955306 L109.53179,196.650289 L105.281382,196.332426 L101.098961,196.001723 L96.9845361,195.658184 L92.9381183,195.301816 L88.9597177,194.932625 L83.1196717,194.354807 L79.3113591,193.953583 L75.5710998,193.539555 L70.088333,192.89452 L66.5182515,192.448509 C65.9289118,192.373108 65.3424091,192.297175 64.7587436,192.220709 L61.2907998,191.755526 L57.8909604,191.277567 L54.559236,190.78684 L51.2956366,190.28335 L48.1001726,189.767102 L44.9728543,189.238103 L41.9136919,188.696358 C41.4095117,188.605005 40.9081718,188.513121 40.4096724,188.420707 L37.4527631,187.859854 L34.5640355,187.286269 L31.7434998,186.699958 C31.2790937,186.601179 30.8175294,186.50187 30.358807,186.402032 L27.6405784,185.796643 L24.9905673,185.178543 L22.4087841,184.547736 L19.895239,183.90423 L17.4499423,183.24803 C17.0480808,183.137606 16.6490634,183.026653 16.2528903,182.915171 L13.9099855,182.23994 L11.6353547,181.552029 C11.2619397,181.436321 10.8913698,181.320084 10.5236453,181.20332 L8.35144495,180.4964 C7.63876088,180.258648 6.93746011,180.018786 6.24754435,179.776814 L5,179.330129 L5.05893801,178.098259 C5.15774211,176.106215 5.2718033,174.213748 5.40105925,172.421052 L5.60633144,169.80686 C5.64244022,169.383641 5.67949672,168.966663 5.71749998,168.55593 L5.8667748,167.03086 L7.60008313,167.622731 C48.0253264,181.226523 93.5311234,187.712229 144.109418,187.09117 L146.562278,187.061051 L146.607703,184.519527 L147.531572,166.184764 C148.757341,139.172108 148.909286,113.208042 147.316533,88.3288038 C146.052457,68.5835785 143.732884,51.1630649 140.187292,36.6096414 L139.752161,34.8235781 L136.542639,34.6018817 L127.141087,34.0518212 C121.061104,33.6816469 115.392558,33.2673266 109.434833,32.7280935 C92.9172569,31.2330891 77.2036859,29.0335143 62.4503132,25.8646057 L60.1199822,25.3539641 C49.3111823,22.9378778 39.4311477,20.0574813 30.6342151,16.6698924 L29.1155449,16.0740474 L30.0402761,13.4056101 L31.2249048,10.0432894 L32.638239,6.08577952 L34.7376143,6.79737549 C106.180616,30.7315992 180.091846,30.7293747 256.394964,6.80572891 L258.937218,6 Z"></path>
            </g>
            <g fill-rule="nonzero" transform="translate(1.000000, 551.000000)" id="左手">
                <path fill="#FFFFFF" id="形状-509" d="M109.43679,41.0448477 C109.43679,41.0448477 127.04428,26.6088217 142.206528,39.0667953 C142.206528,39.0667953 149.743119,49.9069656 139.040271,52.9654224 C139.040271,52.9654224 127.207173,54.2404849 128.931109,66.7732713 C128.931109,66.7732713 131.155839,82.6577915 151.272617,83.1257079 C151.272617,83.1257079 175.578438,85.109196 168.809577,93.5047869 C168.809577,93.5047869 142.739586,111.188655 112.956598,92.2308694 L107,88.4393122 L109.43679,41.0448477 Z"></path>
                <path fill="#000000" id="形状-509备份" d="M113.393751,34.827541 C110.637485,36.2370801 108.560322,37.6544974 107.35779,38.6398034 C106.808741,39.0896722 106.474956,39.7501533 106.438494,40.4588734 L104.003338,87.7914892 C103.95671,88.6978073 104.401306,89.5591564 105.167227,90.0463794 L111.119831,93.8329887 C124.365005,102.258597 137.934145,104.48649 151.06177,102.100026 C155.744727,101.248714 160.070864,99.8543303 163.964322,98.1166894 C165.959498,97.2262471 167.576995,96.3700934 168.778038,95.6480255 L169.681122,95.0795399 C169.896275,94.936947 170.088236,94.762158 170.250287,94.5612894 C172.902715,91.2735038 172.459159,87.8266716 169.463894,85.3847575 C167.503698,83.786692 164.521818,82.6096504 160.71604,81.6847564 C158.574894,81.1644074 156.298998,80.7583065 154.02567,80.4505501 C153.496427,80.3789029 152.992044,80.3160525 152.517813,80.2615257 L150.968183,80.1031902 C142.895208,79.9112719 137.571006,77.23549 134.18701,72.9033878 C132.968783,71.343847 132.089413,69.6680413 131.497982,67.9964414 C131.349469,67.5766908 131.233484,67.2025269 131.145537,66.884247 L131.0057,66.3252507 L130.932654,65.9335853 C130.277416,61.1730611 131.76017,58.2802316 134.712316,56.4844638 C135.619622,55.9325567 136.60988,55.5284824 137.601312,55.2562805 L137.932072,55.1700007 L138.467916,55.0519686 L138.809044,54.998164 L139.231422,54.9157391 C144.31177,53.4648952 146.825668,50.1814448 146.798835,45.9339808 C146.786106,43.9191856 146.212076,41.8768028 145.276894,39.8634846 C144.725897,38.6772656 144.171221,37.7476829 143.772387,37.1743882 C143.640047,36.9841596 143.482088,36.81309 143.302976,36.666017 C141.324949,35.0418149 139.241013,33.7786275 137.065915,32.8628241 C129.323079,29.6027805 121.170109,30.8507544 113.393751,34.827541 Z M135.800703,37.7826859 C137.023182,38.360266 138.215834,39.0847167 139.377408,39.9647211 L139.785925,40.285041 L139.994798,40.6312647 L140.321969,41.2260646 C140.43639,41.4451464 140.554911,41.6840095 140.673733,41.9395521 C141.332402,43.3561119 141.722176,44.7414869 141.729666,45.9259106 L141.721148,46.2663427 C141.624056,47.9345938 140.695439,49.0971132 138.305738,49.8846505 L137.961612,49.9892817 L138.231588,49.9546466 C136.607126,50.1293971 134.339886,50.7512357 132.038651,52.1496154 C127.407979,54.9635118 124.93036,59.7923197 125.870839,66.6180874 C126.215045,69.0716654 127.444375,72.5426145 130.155949,76.0103179 C134.480573,81.5408763 141.23695,84.932923 150.698873,85.1526408 L151.30081,85.2171197 C151.917583,85.2815805 152.606954,85.3634042 153.350186,85.4639169 C155.468547,85.7503984 157.584333,86.1275407 159.542048,86.6028207 C162.681878,87.3650865 165.076695,88.3094207 166.312154,89.3155994 L166.502228,89.475729 C167.085269,89.9880253 167.16189,90.3040576 166.701607,90.9766917 L166.592219,91.1250683 L166.174509,91.3833744 C166.047055,91.4596309 165.913184,91.5381628 165.772991,91.6187706 L164.856733,92.1257288 C164.031234,92.5662897 163.052441,93.0487621 161.93224,93.5481896 C158.381907,95.1310598 154.427513,96.4043102 150.152715,97.1806216 L149.096607,97.3613333 C137.469613,99.2286688 125.523877,97.1057499 113.725944,89.6085129 L109,86.6034877 L111.304396,41.846904 L111.77465,41.5231446 C112.902011,40.7546483 114.185092,39.9831785 115.594172,39.2633262 C122.189584,35.8939484 128.911537,34.8660813 135.063645,37.4536928 L135.800703,37.7826859 Z"></path>
                <path fill="url(#linearGradient-3)" id="路径-3" d="M115.817615,37.0068431 C84.3079642,4.26353258 54.7942546,-4.83473434 27.2764862,9.71204234 C-9.62121876,35.2239247 5.01894231,74.3721716 10.6041045,81.6528226 C16.1892667,88.9334737 43.7926341,132.09045 133,115.048788 C108.774329,86.67552 103.046867,60.6615382 115.817615,37.0068431 Z"></path>
                <path fill="#000000" id="路径-3备份" d="M25.609971,7.00738709 L25.3549553,7.16210074 C8.23412998,18.9918154 0.326429178,34.61344 0.009029362,51.9520148 C-0.208322219,63.8252625 3.5305016,76.2165387 7.74814684,82.1306537 L10.105428,85.2849466 L10.2900287,85.5278366 C11.453294,87.0492799 12.6159598,88.4816433 13.9129195,89.960455 C17.4082146,93.9458398 21.4056488,97.7158017 26.1318375,101.26074 C49.8634438,119.060932 84.4604256,126.197205 132.953788,116.939573 C134.850131,116.577551 135.648756,114.303579 134.394941,112.836093 C110.792701,85.2116716 105.304559,60.3015205 117.517568,37.6951876 C118.037619,36.7325709 117.875443,35.5443114 117.116439,34.7561237 L115.146764,32.7386906 C83.6630917,0.939685282 53.6760451,-7.81921583 25.609971,7.00738709 Z M111.703842,36.2046702 L112.406562,36.9194931 L112.358288,37.0207475 C100.953833,59.7478593 105.784648,84.4943481 126.531845,110.943664 L128,112.78703 L127.217564,112.923147 C82.6316493,120.522548 50.9649474,113.576344 29.1669386,97.2475964 C24.7234876,93.9190361 20.9706805,90.3843542 17.6894069,86.6478341 C16.774855,85.6063966 15.9302484,84.588166 15.1006857,83.5375085 L14.1213495,82.2733279 L12.0953926,79.5720585 C8.43335854,74.8077299 4.80438328,63.1442725 5.0082018,52.0246809 L5.03449078,51.0611401 C5.58115208,35.9986324 12.4744986,22.4951621 27.273964,11.9245458 L28.1122605,11.3367222 L27.9738517,11.4086359 C53.833528,-2.23473038 81.6021777,5.84917998 111.703842,36.2046702 Z"></path>
            </g>
            <g fill-rule="nonzero" transform="translate(349.000000, 611.500000) scale(-1, 1) translate(-349.000000, -611.500000) translate(263.000000, 551.000000)" id="右手">
                <path fill="#FFFFFF" id="形状-509" d="M108.581791,41.0448477 C108.581791,41.0448477 126.18928,26.6088217 141.351529,39.0667953 C141.351529,39.0667953 148.888119,49.9069656 138.185272,52.9654224 C138.185272,52.9654224 126.352174,54.2404849 128.07611,66.7732713 C128.07611,66.7732713 130.30084,82.6577915 150.417618,83.1257079 C150.417618,83.1257079 174.723439,85.109196 167.954578,93.5047869 C167.954578,93.5047869 141.884586,111.188655 112.101598,92.2308694 L106.145001,88.4393122 L108.581791,41.0448477 Z"></path>
                <path fill="#000000" id="形状-509备份" d="M113.393751,34.827541 C110.637485,36.2370801 108.560322,37.6544974 107.35779,38.6398034 C106.808741,39.0896722 106.474956,39.7501533 106.438494,40.4588734 L104.003338,87.7914892 C103.95671,88.6978073 104.401306,89.5591564 105.167227,90.0463794 L111.119831,93.8329887 C124.365005,102.258597 137.934145,104.48649 151.06177,102.100026 C155.744727,101.248714 160.070864,99.8543303 163.964322,98.1166894 C165.959498,97.2262471 167.576995,96.3700934 168.778038,95.6480255 L169.681122,95.0795399 C169.896275,94.936947 170.088236,94.762158 170.250287,94.5612894 C172.902715,91.2735038 172.459159,87.8266716 169.463894,85.3847575 C167.503698,83.786692 164.521818,82.6096504 160.71604,81.6847564 C158.574894,81.1644074 156.298998,80.7583065 154.02567,80.4505501 C153.496427,80.3789029 152.992044,80.3160525 152.517813,80.2615257 L150.968183,80.1031902 C142.895208,79.9112719 137.571006,77.23549 134.18701,72.9033878 C132.968783,71.343847 132.089413,69.6680413 131.497982,67.9964414 C131.349469,67.5766908 131.233484,67.2025269 131.145537,66.884247 L131.0057,66.3252507 L130.932654,65.9335853 C130.277416,61.1730611 131.76017,58.2802316 134.712316,56.4844638 C135.619622,55.9325567 136.60988,55.5284824 137.601312,55.2562805 L137.932072,55.1700007 L138.467916,55.0519686 L138.809044,54.998164 L139.231422,54.9157391 C144.31177,53.4648952 146.825668,50.1814448 146.798835,45.9339808 C146.786106,43.9191856 146.212076,41.8768028 145.276894,39.8634846 C144.725897,38.6772656 144.171221,37.7476829 143.772387,37.1743882 C143.640047,36.9841596 143.482088,36.81309 143.302976,36.666017 C141.324949,35.0418149 139.241013,33.7786275 137.065915,32.8628241 C129.323079,29.6027805 121.170109,30.8507544 113.393751,34.827541 Z M135.94861,37.7826859 C137.171089,38.360266 138.363741,39.0847167 139.525315,39.9647211 L139.933833,40.285041 L140.142705,40.6312647 L140.469876,41.2260646 C140.584298,41.4451464 140.702818,41.6840095 140.82164,41.9395521 C141.480309,43.3561119 141.870083,44.7414869 141.877573,45.9259106 L141.869055,46.2663427 C141.771964,47.9345938 140.843346,49.0971132 138.453645,49.8846505 L138.109519,49.9892817 L138.379495,49.9546466 C136.755033,50.1293971 134.487794,50.7512357 132.186558,52.1496154 C127.555886,54.9635118 125.078268,59.7923197 126.018747,66.6180874 C126.362952,69.0716654 127.592282,72.5426145 130.303856,76.0103179 C134.62848,81.5408763 141.384857,84.932923 150.84678,85.1526408 L151.448717,85.2171197 C152.06549,85.2815805 152.754861,85.3634042 153.498093,85.4639169 C155.616454,85.7503984 157.732241,86.1275407 159.689955,86.6028207 C162.829785,87.3650865 165.224603,88.3094207 166.460061,89.3155994 L166.650136,89.475729 C167.233176,89.9880253 167.309797,90.3040576 166.849514,90.9766917 L166.740126,91.1250683 L166.322416,91.3833744 C166.194962,91.4596309 166.061091,91.5381628 165.920898,91.6187706 L165.00464,92.1257288 C164.179141,92.5662897 163.200349,93.0487621 162.080147,93.5481896 C158.529814,95.1310598 154.57542,96.4043102 150.300622,97.1806216 L149.244514,97.3613333 C137.61752,99.2286688 125.671784,97.1057499 113.873851,89.6085129 L109.147907,86.6034877 L111.452303,41.846904 L111.922557,41.5231446 C113.049918,40.7546483 114.332999,39.9831785 115.742079,39.2633262 C122.337491,35.8939484 129.059445,34.8660813 135.211553,37.4536928 L135.94861,37.7826859 Z"></path>
                <path fill="url(#linearGradient-3)" id="路径-3" d="M114.834538,37.0068431 C83.3248872,4.26353258 53.8111776,-4.83473434 26.2934093,9.71204234 C-10.6042957,35.2239247 4.03586533,74.3721716 9.62102753,81.6528226 C15.2061897,88.9334737 42.8095571,132.09045 132.016923,115.048788 C107.791252,86.67552 102.06379,60.6615382 114.834538,37.0068431 Z"></path>
                <path fill="#000000" id="路径-3备份" d="M25.609971,7.00738709 L25.3549553,7.16210074 C8.23412998,18.9918154 0.326429178,34.61344 0.009029362,51.9520148 C-0.208322219,63.8252625 3.5305016,76.2165387 7.74814684,82.1306537 L10.105428,85.2849466 L10.2900287,85.5278366 C11.453294,87.0492799 12.6159598,88.4816433 13.9129195,89.960455 C17.4082146,93.9458398 21.4056488,97.7158017 26.1318375,101.26074 C49.8634438,119.060932 84.4604256,126.197205 132.953788,116.939573 C134.850131,116.577551 135.648756,114.303579 134.394941,112.836093 C110.792701,85.2116716 105.304559,60.3015205 117.517568,37.6951876 C118.037619,36.7325709 117.875443,35.5443114 117.116439,34.7561237 L115.146764,32.7386906 C83.6630917,0.939685282 53.6760451,-7.81921583 25.609971,7.00738709 Z M111.942393,36.2046702 L112.645114,36.9194931 L112.596839,37.0207475 C101.192384,59.7478593 106.023199,84.4943481 126.770396,110.943664 L128.238551,112.78703 L127.456115,112.923147 C82.8702005,120.522548 51.2034987,113.576344 29.4054899,97.2475964 C24.9620389,93.9190361 21.2092318,90.3843542 17.9279582,86.6478341 C17.0134063,85.6063966 16.1687997,84.588166 15.339237,83.5375085 L14.3599008,82.2733279 L12.3339439,79.5720585 C8.67190983,74.8077299 5.04293457,63.1442725 5.24675309,52.0246809 L5.27304207,51.0611401 C5.81970337,35.9986324 12.7130498,22.4951621 27.5125153,11.9245458 L28.3508117,11.3367222 L28.212403,11.4086359 C54.0720793,-2.23473038 81.840729,5.84917998 111.942393,36.2046702 Z"></path>
            </g>
            <g fill="#FB0004" transform="translate(122.000000, 492.000000)" id="心">
                <path id="形状结合" d="M187.260195,14.6953891 C206.252008,33.6259394 206.301671,64.3680889 187.371121,83.3599018 L187.260195,83.4708276 L187.260195,83.4708276 L169.877,100.797 L170.759199,101.676091 L101.761191,170.451529 L100.88,169.572 L99.9980082,170.451529 L31,101.676091 L31.881,100.796 L14.4990041,83.4708276 C14.4804866,83.4523699 14.461984,83.4338972 14.4434964,83.4154095 L14.3880783,83.3599018 C-4.54247203,64.3680889 -4.49280884,33.6259394 14.4990041,14.6953891 C33.5702819,-4.31436974 64.4257345,-4.31436974 83.4970123,14.6953891 L83.4970123,14.6953891 L100.879,32.021 L118.262187,14.6953891 C137.333465,-4.31436974 168.188917,-4.31436974 187.260195,14.6953891 Z"></path>
            </g>
            <g fill-rule="nonzero" transform="translate(354.000000, 60.000000)" id="星星">
                <path fill="#F3D401" id="多边形-3" d="M3,29.5 C8.47791165,25.3537415 12.1004016,16.5204082 13.8674699,3 C15.6345382,16.5204082 19.3453815,25.3537415 25,29.5 C19.3453815,33.6462585 15.6345382,42.4795918 13.8674699,56 C12.1004016,42.4795918 8.47791165,33.6462585 3,29.5 Z"></path>
                <path fill="#000000" id="多边形-3备份" d="M11.3184544,2.1844681 C9.56463309,15.0861626 6.04723506,23.3325527 1.03717885,26.9784873 C-0.345726285,27.9848596 -0.345726285,30.0151404 1.03717885,31.0215127 C6.04723506,34.6674473 9.56463309,42.9138374 11.3184544,55.8155319 C11.7143887,58.728156 16.0101005,58.728156 16.4060348,55.8155319 C18.1583591,42.9248496 21.7550993,34.6932169 26.9314843,31.0439589 C28.3561719,30.0395799 28.3561719,27.9604201 26.9314843,26.9560411 C21.7550993,23.3067831 18.1583591,15.0751504 16.4060348,2.1844681 C16.0101005,-0.728156032 11.7143887,-0.728156032 11.3184544,2.1844681 Z M13.4106535,15 L13.6126998,15.660532 C15.3819109,21.2901383 17.7528669,25.6613351 20.7613928,28.7636434 L21,29.0012646 L20.7613928,29.2388745 C17.7528669,32.3411828 15.3819109,36.7123797 13.6126998,42.3419859 L13.4106535,43 C11.6710397,37.1066019 9.32367111,32.5521683 6.32819533,29.338083 L6,29.0012646 L6.32819533,28.664435 C9.32367111,25.4503496 11.6710397,20.8959161 13.4106535,15 Z"></path>
                <path fill="#F3D401" id="多边形-3-拷贝" d="M161,250.865204 C170.862069,244.215256 177.317241,229.926855 180.365517,208 C183.413793,229.926855 189.958621,244.215256 200,250.865204 C189.958621,257.69488 183.413793,272.073145 180.365517,294 C177.317241,272.073145 170.862069,257.69488 161,250.865204 Z"></path>
                <path fill="#000000" id="多边形-3-拷贝备份" d="M178.384791,207.187855 C175.42588,228.705715 169.250861,242.524161 160.106648,248.7578 C158.642137,249.756161 158.628791,251.935262 160.080961,252.951966 C169.244251,259.367438 175.424564,273.284713 178.384791,294.812145 C178.785926,297.729285 182.945174,297.729285 183.346309,294.812145 C186.305647,273.291175 192.568163,259.381973 201.90168,252.964011 C203.377033,251.949521 203.363604,249.742072 201.876021,248.746091 C192.561461,242.509715 186.304347,228.699366 183.346309,207.187855 C182.945174,204.270715 178.785926,204.270715 178.384791,207.187855 Z M181.392703,221 L181.517996,221.507948 C184.789678,234.619943 189.80704,244.162168 196.646663,250.094877 L197,250.392791 L196.564701,250.774736 C189.812654,256.780097 184.842053,266.281574 181.581414,279.242575 L181.392703,280 L181.210973,279.247005 C177.98008,266.290403 173.082688,256.792819 166.445793,250.787149 L166,250.392791 L166.36488,250.082734 C173.088032,244.149555 178.031588,234.61126 181.273805,221.503664 L181.392703,221 Z"></path>
            </g>
            <path transform="translate(615.174453, 140.404867) rotate(20.000000) translate(-615.174453, -140.404867)" fill-rule="nonzero" fill="#000000" d="M510.054224,111.829617 C515.734697,106.05184 521.592685,98.5232202 526.563099,90.1191798 L536.858957,90.1191798 C540.409253,96.2471259 544.492093,103.95083 546.089727,108.853186 L560.29091,103.775745 C559.048306,99.9238936 556.385585,95.0215367 553.545348,90.1191798 L586.20807,90.1191798 L586.20807,76.2875299 L533.663691,76.2875299 C535.616354,72.0855097 537.391502,67.8834895 538.81162,63.5063852 L522.835289,59.8296175 C517.33233,76.2875299 507.746531,92.2201899 496.20807,102.375072 C499.93588,104.651166 506.858957,109.028271 510.054224,111.829617 Z M472.973822,113.664379 L487.411746,107.84085 C485.827095,103.076144 482.481723,96.3702617 479.312423,90.1937911 L504.490752,90.1937911 L504.490752,76.2526146 L463.289849,76.2526146 C465.050572,72.0173205 466.811294,67.7820264 468.395944,63.5467322 L452.549443,59.6643793 C446.915132,76.6055558 437.407231,93.5467322 426.490752,104.664379 C430.364342,106.605556 437.231159,111.193791 440.224387,113.664379 C445.858698,107.311438 451.316937,99.1937911 456.24696,90.1937911 L462.58556,90.1937911 C466.987366,98.1349675 471.565244,107.487909 472.973822,113.664379 Z M558.227813,220.234968 C575.874872,220.234968 580.816049,214.426557 582.933696,193.481074 C578.34546,192.601011 571.816049,190.136837 568.110166,187.320638 C566.874872,202.985747 565.286637,206.153971 556.992519,206.153971 L522.051343,206.153971 C511.639578,206.153971 509.698402,204.569859 509.698402,197.52936 L509.698402,185.384501 L586.286637,179.400077 L584.698402,165.31908 L509.698402,171.303504 L509.698402,156.166432 L571.639578,151.238083 L570.051343,137.861136 L509.698402,142.43746 L509.698402,129.58855 C532.639578,127.476401 554.698402,124.484189 572.16899,120.787927 L564.051343,107.234968 C534.227813,113.923441 484.816049,118.14774 441.933696,120.25989 C443.521931,123.780139 445.286637,129.764563 445.639578,133.636837 C460.816049,133.1088 477.051343,132.228737 493.110166,130.820638 L493.110166,143.669547 L438.757225,147.717834 L440.16899,161.622818 L493.110166,157.398519 L493.110166,172.535591 L430.286637,177.287927 L431.874872,191.720949 L493.110166,186.7926 L493.110166,197.52936 C493.110166,215.482631 498.933696,220.234968 520.639578,220.234968 L558.227813,220.234968 Z M763.30265,116.974615 L763.30265,98.8362503 L801.023848,98.8362503 L801.023848,82.9871937 L763.30265,82.9871937 L763.30265,61.1507158 L747.08606,61.1507158 L747.08606,82.9871937 L701.432834,82.9871937 L701.432834,60.9746151 L685.216244,60.9746151 L685.216244,82.9871937 L648.023848,82.9871937 L648.023848,98.8362503 L685.216244,98.8362503 L685.216244,116.798514 L701.432834,116.798514 L701.432834,98.8362503 L747.08606,98.8362503 L747.08606,116.974615 L763.30265,116.974615 Z M734.33703,164.478429 L750.008263,156.705096 C745.73429,144.338429 735.227441,125.611763 725.254838,111.478429 L711.008263,118.191763 C720.624701,132.855096 730.775386,152.288429 734.33703,164.478429 Z M745.640211,219.595008 C764.156808,219.595008 768.918219,212.312113 771.21075,184.601587 C766.802036,183.358166 759.571746,180.871324 756.044775,178.029218 C754.986684,199.877903 753.399547,203.608166 744.582119,203.608166 L713.897472,203.608166 C704.374651,203.608166 702.611165,202.542376 702.611165,195.970008 L702.611165,138.595008 L686.21075,138.595008 L686.21075,196.147639 C686.21075,214.443692 691.677555,219.595008 712.486684,219.595008 L745.640211,219.595008 Z M788.083723,203.294128 L804.961896,198.026271 C802.652251,183.803057 794.301997,161.502461 785.596413,144.294128 L769.961896,148.684009 C778.134485,166.243533 785.951743,189.246509 788.083723,203.294128 Z M658.376494,204.867781 C667.483637,190.177515 673.733637,167.522648 677.662208,149.469551 L661.947922,144.867781 C658.376494,162.743887 651.590779,183.097869 642.662208,196.726188 L658.376494,204.867781 Z"></path>
        </g>
    </g>
</svg>