<?xml version="1.0" encoding="UTF-8"?>
<svg width="38px" height="31px" viewBox="0 0 38 31" version="1.1" xmlns="http://www.w3.org/2000/svg" xmlns:xlink="http://www.w3.org/1999/xlink">
    <title>8</title>
    <g id="卡片" stroke="none" stroke-width="1" fill="none" fill-rule="evenodd">
        <g id="Apple-TV" transform="translate(-1031.000000, -315.000000)">
            <g id="8" transform="translate(1031.000000, 315.183013)">
                <path d="M12.0973861,2.1357996 L12.5702912,2.62020404 L13.7944582,3.92571444 C13.8627984,3.99722799 13.9245499,4.06094448 13.9835073,4.12077317 L14.1717712,4.3071205 C14.2287119,4.3617559 14.2799037,4.40896246 14.3255411,4.4488948 L14.3898559,4.50335698 C14.4220338,4.5295734 14.4440492,4.54370898 14.4017158,4.54831455 L14.567666,4.53103221 C14.7695835,4.50390785 15.1205984,4.44424406 15.7771839,4.33038055 C16.3324782,4.23920295 16.7969784,4.17629396 17.2474843,4.1374344 C17.550817,4.11126965 17.8359861,4.09752568 18.1045801,4.09752568 C18.3764522,4.09752568 18.6650118,4.11160403 18.9723939,4.13840668 C19.3290092,4.1695023 19.693139,4.21540752 20.1100975,4.27912539 L20.4334298,4.33030059 C20.6016674,4.35775367 21.2259201,4.46402813 21.3606704,4.4856132 L21.6972928,4.53426865 L21.8958408,4.55002171 C21.8147861,4.55002171 21.8087549,4.54377889 21.828616,4.52394197 L21.8475989,4.50640053 C21.9246622,4.4361867 22.0216196,4.33413547 22.1385117,4.20030366 L22.2299191,4.09397182 C22.3144672,3.99419093 22.4061047,3.88256147 22.5115047,3.75116319 L23.5420647,2.43838964 L23.8703715,2.02991923 C24.7536052,0.948018327 25.2535502,0.5 25.7768718,0.5 C27.0535368,0.5 28.6460022,5.41875048 28.6460022,8.19505136 C28.6460022,8.47119373 28.4221445,8.69505136 28.1460022,8.69505136 C27.8698598,8.69505136 27.6460022,8.47119373 27.6460022,8.19505136 C27.6460022,5.97733643 26.1964464,1.5 25.7768718,1.5 C25.6848495,1.5 25.1691402,2.01392092 24.4604447,2.89130799 L23.2893391,4.37964801 C23.1795432,4.51649234 23.0831458,4.63388772 22.9928603,4.74043981 C22.5019525,5.31979369 22.2492652,5.55002171 21.8958408,5.55002171 L21.7172441,5.5416696 C21.5842882,5.53046578 21.4199354,5.50785506 21.2025012,5.47302521 L20.2723796,5.3172468 L19.6730004,5.22569781 C19.3921412,5.18636903 19.1355766,5.15643007 18.885527,5.13462661 C18.6055237,5.11021129 18.3455106,5.09752568 18.1045801,5.09752568 C17.8665684,5.09752568 17.6096517,5.109908 17.3334228,5.13373485 C16.9125033,5.17004236 16.4714163,5.2297804 15.9392112,5.31716684 L14.9877928,5.47958801 C14.6751032,5.52903294 14.4902515,5.55002171 14.3570536,5.55002171 C14.0617837,5.55002171 13.8370381,5.38696098 13.3968428,4.94901388 L12.9619615,4.50131999 L11.9541004,3.4233496 L11.7449522,3.2043831 C10.9131336,2.34144528 10.3044612,1.84891491 10.1324785,1.84891491 C9.90168509,1.84891491 9.20284755,4.07330159 8.55657448,8.01639411 C8.51191066,8.28890054 8.25479337,8.47360347 7.98228694,8.42893965 C7.70978051,8.38427583 7.52507758,8.12715855 7.5697414,7.85465212 L7.68793151,7.14877389 C8.43195367,2.80434854 9.09801707,0.848914914 10.1324785,0.848914914 C10.650332,0.848914914 11.220851,1.26127308 12.0973861,2.1357996 Z" id="路径-17" fill="#333333" fill-rule="nonzero"></path>
                <path d="M6.32810085,8.66455601 C6.51447982,8.4607976 6.83074866,8.44670879 7.03450707,8.63308776 C7.23826548,8.81946674 7.25235429,9.13573558 7.06597531,9.33949398 C3.45490726,13.2872862 1.99431677,17.4612752 2.65435071,21.8946431 C3.2959909,26.2044625 6.86578115,28.4495962 13.5508705,28.6243625 C13.8269186,28.6315791 14.0448495,28.8612105 14.0376329,29.1372586 C14.0304162,29.4133066 13.8007848,29.6312376 13.5247368,29.6241951 C6.40591584,29.4379157 2.39037131,26.9124356 1.66525225,22.0418988 C0.958526945,17.2949106 2.52276086,12.8247356 6.32810085,8.66455601 Z" id="路径-18" fill="#333333" fill-rule="nonzero"></path>
                <path d="M27.3278117,8.66455601 C27.5141906,8.4607976 27.8304595,8.44670879 28.0342179,8.63308776 C28.2379763,8.81946674 28.2520651,9.13573558 28.0656861,9.33949398 C24.4546181,13.2872862 22.9940276,17.4612752 23.6540615,21.8946431 C24.2957017,26.2044625 27.865492,28.4495962 34.5505813,28.6243625 C34.8266294,28.6315791 35.0445603,28.8612105 35.0373437,29.1372586 C35.030127,29.4133066 34.8004956,29.6312376 34.5244476,29.6241951 C27.4056266,29.4379157 23.3900821,26.9124356 22.6649631,22.0418988 C21.9582378,17.2949106 23.5224717,12.8247356 27.3278117,8.66455601 Z" id="路径-18备份" fill="#333333" fill-rule="nonzero" transform="translate(28.768709, 19.063108) scale(-1, 1) translate(-28.768709, -19.063108) "></path>
                <path d="M36.6234388,5.38647484 C36.1086998,4.87117505 35.2659407,4.87117505 34.7506409,5.38647484 L34.6844762,5.45263956 C34.5824255,5.55469022 34.4175745,5.55469022 34.3155238,5.45263956 L34.2493591,5.38647484 C33.7340593,4.87117505 32.8918609,4.87117505 32.3765612,5.38647484 C31.8618221,5.90121391 31.7704251,7.21273317 32.7735495,8.26800434 C33.3365103,8.8606832 33.9443285,9.16627448 34.2673021,9.29860391 C34.416453,9.35972217 34.5841077,9.35972217 34.7326979,9.29860391 C35.0556715,9.16627448 35.6634897,8.8606832 36.2264505,8.26800434 C37.2295749,7.21273317 37.1381779,5.90177463 36.6234388,5.38647484 Z" id="路径" fill="#E82F46" fill-rule="nonzero"></path>
                <path d="M34.5195223,4.92106872 L34.5,4.939 L34.6029125,5.03292145 C33.8923505,4.32235952 32.7335697,4.32235952 32.0230078,5.03292145 C31.2147367,5.84119251 31.334136,7.47948274 32.4111555,8.61249039 C32.9301576,9.15889004 33.514883,9.5306618 34.0777354,9.76127496 C34.3484573,9.87220986 34.6525617,9.87220986 34.9228973,9.7610152 C35.485117,9.5306618 36.0698424,9.15889004 36.5889759,8.61235203 C37.6658396,7.47950834 37.7851974,5.84200693 36.9771846,5.03311396 C36.3066167,4.36181557 35.2351265,4.32452122 34.5195223,4.92106872 Z M33.8958057,5.74002823 L33.9619704,5.80619295 C34.2592832,6.10350576 34.7407168,6.10350576 35.0380296,5.80619295 L35.1041943,5.74002823 C35.4241999,5.42002268 35.950228,5.42002268 36.269693,5.73983572 C36.6653973,6.13597103 36.5908312,7.15896275 35.8640566,7.92351829 C35.4510612,8.35831524 34.9838949,8.65534223 34.5431313,8.83593286 C34.5156537,8.84723448 34.4844488,8.84723448 34.4568893,8.83594134 C34.0161051,8.65534223 33.5489388,8.35831524 33.1360749,7.92365665 C32.4092213,7.15901799 32.3346279,6.13551487 32.7301145,5.74002823 C33.0501522,5.41999059 33.575768,5.41999059 33.8958057,5.74002823 Z" id="路径" fill="#333333" fill-rule="nonzero"></path>
                <path d="M0.532121855,18.8501138 L0.621267813,18.8640967 L4.62126781,19.8640967 C4.88916527,19.931071 5.05204561,20.2025383 4.98507125,20.4704357 C4.92553848,20.7085668 4.70443109,20.8637214 4.46787814,20.8482221 L4.37873219,20.8342392 L0.378732187,19.8342392 C0.110834733,19.7672648 -0.0520456136,19.4957975 0.0149287499,19.2279001 C0.0744615175,18.989769 0.295568908,18.8346144 0.532121855,18.8501138 Z" id="直线-2" fill="#333333" fill-rule="nonzero"></path>
                <g id="编组-22" transform="translate(34.500000, 21.349168) scale(-1, 1) translate(-34.500000, -21.349168) translate(32.000000, 18.849168)" fill="#333333" fill-rule="nonzero">
                    <path d="M0.532121855,0.000945854524 L0.621267813,0.0149287499 L4.62126781,1.01492875 C4.88916527,1.08190311 5.05204561,1.35337036 4.98507125,1.62126781 C4.92553848,1.85939888 4.70443109,2.01455347 4.46787814,1.99905415 L4.37873219,1.98507125 L0.378732187,0.98507125 C0.110834733,0.918096887 -0.0520456136,0.646629641 0.0149287499,0.378732187 C0.0744615175,0.140601117 0.295568908,-0.0145534734 0.532121855,0.000945854524 Z" id="直线-2备份-2"></path>
                    <path d="M4.43798263,2.50386106 C4.7119926,2.46960982 4.96188769,2.66397266 4.99613894,2.93798263 C5.02658449,3.18154705 4.87639668,3.40605774 4.65019979,3.47699778 L4.56201737,3.49613894 L0.562017367,3.99613894 C0.288007398,4.03039018 0.0381123078,3.83602734 0.00386106164,3.56201737 C-0.0265844905,3.31845295 0.123603316,3.09394226 0.349800214,3.02300222 L0.437982633,3.00386106 L4.43798263,2.50386106 Z" id="直线-2备份-3"></path>
                </g>
                <path d="M4.43798263,21.353029 C4.7119926,21.3187777 4.96188769,21.5131406 4.99613894,21.7871505 C5.02658449,22.030715 4.87639668,22.2552256 4.65019979,22.3261657 L4.56201737,22.3453068 L0.562017367,22.8453068 C0.288007398,22.8795581 0.0381123078,22.6851952 0.00386106164,22.4111853 C-0.0265844905,22.1676209 0.123603316,21.9431102 0.349800214,21.8721701 L0.437982633,21.853029 L4.43798263,21.353029 Z" id="直线-2备份" fill="#333333" fill-rule="nonzero"></path>
                <path d="M10.592839,21.3491679 C11.1451238,21.3491679 11.592839,20.9014527 11.592839,20.3491679 C11.592839,19.7968832 11.1451238,19.3491679 10.592839,19.3491679 C10.0405543,19.3491679 9.59283902,19.7968832 9.59283902,20.3491679 C9.59283902,20.9014527 10.0405543,21.3491679 10.592839,21.3491679 Z" id="椭圆形" fill="#333333"></path>
                <path d="M8,24.8491679 C9.1045695,24.8491679 10,23.9537374 10,22.8491679 C10,21.7445984 9.1045695,20.8491679 8,20.8491679 C6.8954305,20.8491679 6,21.7445984 6,22.8491679 C6,23.9537374 6.8954305,24.8491679 8,24.8491679 Z" id="椭圆形备份-6" fill="#F6B2B1"></path>
                <path d="M28,24.8491679 C29.1045695,24.8491679 30,23.9537374 30,22.8491679 C30,21.7445984 29.1045695,20.8491679 28,20.8491679 C26.8954305,20.8491679 26,21.7445984 26,22.8491679 C26,23.9537374 26.8954305,24.8491679 28,24.8491679 Z" id="椭圆形备份-7" fill="#F6B2B1"></path>
                <path d="M25.3672842,21.3491679 C25.9195689,21.3491679 26.3672842,20.9014527 26.3672842,20.3491679 C26.3672842,19.7968832 25.9195689,19.3491679 25.3672842,19.3491679 C24.8149994,19.3491679 24.3672842,19.7968832 24.3672842,20.3491679 C24.3672842,20.9014527 24.8149994,21.3491679 25.3672842,21.3491679 Z" id="椭圆形备份-5" fill="#333333"></path>
                <path d="M18,20.8491679 C18.5522847,20.8491679 18.8612143,20.6253103 18.8612143,20.3491679 C18.8612143,20.0730255 18.5522847,19.8491679 18,19.8491679 C17.4477153,19.8491679 17.1779681,20.0730255 17.1779681,20.3491679 C17.1779681,20.6253103 17.4477153,20.8491679 18,20.8491679 Z" id="椭圆形备份-8" fill="#333333"></path>
                <path d="M16.0634894,19.5651695 C17.1680589,19.5651695 18.0634894,20.4606 18.0634894,21.5651695 C18.0634894,22.6195313 17.2476117,23.4833346 16.2127518,23.5596838 L16.0634894,23.5651695 L15.4402699,23.5651695 C15.1641275,23.5651695 14.9402699,23.3413119 14.9402699,23.0651695 C14.9402699,22.8197096 15.117145,22.6155611 15.3503943,22.5732252 L15.4402699,22.5651695 L16.0634894,22.5651695 C16.6157742,22.5651695 17.0634894,22.1174542 17.0634894,21.5651695 C17.0634894,21.0523336 16.6774493,20.6296623 16.1801106,20.5718972 L16.0634894,20.5651695 L15.4402699,20.5651695 C15.1641275,20.5651695 14.9402699,20.3413119 14.9402699,20.0651695 C14.9402699,19.8197096 15.117145,19.6155611 15.3503943,19.5732252 L15.4402699,19.5651695 L16.0634894,19.5651695 Z" id="矩形" fill="#333333" fill-rule="nonzero" transform="translate(16.501880, 21.565169) rotate(-270.000000) translate(-16.501880, -21.565169) "></path>
                <path d="M19.0634894,19.5651695 C20.1680589,19.5651695 21.0634894,20.4606 21.0634894,21.5651695 C21.0634894,22.6195313 20.2476117,23.4833346 19.2127518,23.5596838 L19.0634894,23.5651695 L18.4402699,23.5651695 C18.1641275,23.5651695 17.9402699,23.3413119 17.9402699,23.0651695 C17.9402699,22.8197096 18.117145,22.6155611 18.3503943,22.5732252 L18.4402699,22.5651695 L19.0634894,22.5651695 C19.6157742,22.5651695 20.0634894,22.1174542 20.0634894,21.5651695 C20.0634894,21.0523336 19.6774493,20.6296623 19.1801106,20.5718972 L19.0634894,20.5651695 L18.4402699,20.5651695 C18.1641275,20.5651695 17.9402699,20.3413119 17.9402699,20.0651695 C17.9402699,19.8197096 18.117145,19.6155611 18.3503943,19.5732252 L18.4402699,19.5651695 L19.0634894,19.5651695 Z" id="矩形备份-11" fill="#333333" fill-rule="nonzero" transform="translate(19.501880, 21.565169) rotate(-270.000000) translate(-19.501880, -21.565169) "></path>
                <path d="M10.3518734,4.12398547 C10.0111864,4.23881047 9.8014764,4.86621545 9.59417046,5.72736861 C9.38686453,6.58852177 9.21853883,7.4548101 9.51750998,7.58994847 C9.81648113,7.72508684 11.9759961,6.70416239 12.0664829,6.20182077 C12.1569697,5.69947916 10.6925604,4.00916047 10.3518734,4.12398547 Z" id="路径-19" fill="#F6B2B1"></path>
                <path d="M24.9963398,4.12398547 C24.6556528,4.23881047 24.4459428,4.86621545 24.2386368,5.72736861 C24.0313309,6.58852177 23.8630052,7.4548101 24.1619764,7.58994847 C24.4609475,7.72508684 26.6204624,6.70416239 26.7109493,6.20182077 C26.8014361,5.69947916 25.3370267,4.00916047 24.9963398,4.12398547 Z" id="路径-19备份" fill="#F6B2B1" transform="translate(25.357484, 5.860280) scale(-1, 1) translate(-25.357484, -5.860280) "></path>
            </g>
        </g>
    </g>
</svg>