<?xml version="1.0" standalone="no"?><!DOCTYPE svg PUBLIC "-//W3C//DTD SVG 1.1//EN" "http://www.w3.org/Graphics/SVG/1.1/DTD/svg11.dtd"><svg t="1660727312793" class="icon" viewBox="0 0 1666 1024" version="1.1" xmlns="http://www.w3.org/2000/svg" p-id="54661" xmlns:xlink="http://www.w3.org/1999/xlink" width="325.390625" height="200"><defs><style type="text/css"></style></defs><path d="M544.363163 257.119256C516.357953 223.684465 479.827349 206.705116 435.795349 206.705116c-49.533023 0-97.16093 22.432744-117.498047 32.029768-122.260837 57.58214-180.485953 152.028279-177.914046 288.720372 1.905116 102.971535 98.113488 481.113302 253.690046 481.16093 0.452465 0 5.096186-0.142884 5.548651-0.190512 58.296558-3.262512 103.995535-30.83907 128.571535-77.562046 34.173023-64.916837 24.147349-156.862512-26.195348-239.973209-68.655628-113.282977-30.72-152.528372 5.953488-190.511628 82.872558-85.873116 95.874977-172.27014 36.411535-243.259535z" fill="#2476FF" p-id="54662"></path><path d="M507.951628 500.402605c82.872558-85.89693 95.874977-172.293953 36.411535-243.259535-28.005209-33.458605-64.535814-50.437953-108.567814-50.437954-10.668651 0-21.194419 1.190698-31.434419 2.929117 31.196279 6.001116 57.963163 21.74214 79.514791 47.508837 59.463442 70.965581 46.484837 157.362605-36.435349 243.259535-36.673488 37.959442-74.585302 77.204837-5.953488 190.511628 50.366512 83.086884 60.392186 175.032558 26.195349 239.949395-20.503814 39.007256-55.867535 64.416744-100.875907 73.751814a97.541953 97.541953 0 0 0 32.815627 3.810232c58.320372-3.262512 103.995535-30.83907 128.571535-77.562046 34.173023-64.916837 24.147349-156.862512-26.195348-239.973209-68.655628-113.282977-30.72-152.528372 5.953488-190.511628z" fill="#060606" opacity=".35" p-id="54663"></path><path d="M77.181023 347.278884m-77.181023 0a77.181023 77.181023 0 1 0 154.362047 0 77.181023 77.181023 0 1 0-154.362047 0Z" fill="#2476FF" p-id="54664"></path><path d="M151.552 275.21786A68.84614 68.84614 0 0 0 220.350512 206.466977a68.869953 68.869953 0 0 0-68.798512-68.774698 68.869953 68.869953 0 0 0-68.774698 68.774698 68.869953 68.869953 0 0 0 68.774698 68.774697zM283.909953 183.510326a68.893767 68.893767 0 0 0 68.774698-68.774698 68.893767 68.893767 0 0 0-68.774698-68.774698 68.822326 68.822326 0 0 0-68.798511 68.774698 68.822326 68.822326 0 0 0 68.798511 68.774698zM440.629581 137.644651a68.84614 68.84614 0 0 0 68.798512-68.774698A68.869953 68.869953 0 0 0 440.629581 0.095256a68.869953 68.869953 0 0 0-68.774697 68.774697 68.84614 68.84614 0 0 0 68.774697 68.798512zM650.12093 0.095256a114.735628 114.735628 0 0 0-114.616558 114.640372A114.759442 114.759442 0 0 0 650.12093 229.376a114.759442 114.759442 0 0 0 114.640372-114.640372A114.735628 114.735628 0 0 0 650.12093 0.095256zM1155.262512 500.402605c36.673488 37.959442 74.585302 77.204837 5.953488 190.511628-50.342698 83.110698-60.368372 175.032558-26.195349 239.949395 24.576 46.722977 70.251163 74.299535 128.571535 77.562046 0.428651 0.047628 5.096186 0.190512 5.548651 0.190512 155.576558-0.047628 251.761116-378.165581 253.690047-481.16093 2.548093-136.692093-55.677023-231.138233-177.937861-288.720372-20.313302-9.597023-67.965023-32.029767-117.498046-32.029768-44.008186 0-80.562605 16.979349-108.544 50.41414-59.487256 70.989395-46.484837 157.386419 36.411535 243.283349z" fill="#2476FF" p-id="54665"></path><path d="M1344.893023 238.734884c-20.313302-9.573209-67.965023-32.029767-117.498046-32.029768-10.12093 0-19.741767 1.14307-29.053024 2.929117 37.316465 6.310698 70.132093 21.575442 86.087442 29.100651 122.237023 57.58214 180.46214 152.028279 177.890233 288.720372-1.786047 96.827535-86.92093 436.771721-226.42307 477.160186 8.906419 1.833674 18.050977 3.286326 27.671814 3.810232 0.476279 0.047628 5.12 0.190512 5.572465 0.190512 155.576558-0.047628 251.761116-378.165581 253.690047-481.16093 2.548093-136.692093-55.677023-231.138233-177.937861-288.720372z" fill="#060606" opacity=".35" p-id="54666"></path><path d="M1525.76 344.016372a68.822326 68.822326 0 0 0 68.774698 68.774698 68.893767 68.893767 0 0 0 68.774697-68.774698 68.893767 68.893767 0 0 0-68.774697-68.798512 68.822326 68.822326 0 0 0-68.798512 68.798512zM1580.413023 206.443163a68.869953 68.869953 0 0 0-68.774697-68.774698 68.869953 68.869953 0 0 0-68.798512 68.774698 68.869953 68.869953 0 0 0 68.798512 68.774697 68.869953 68.869953 0 0 0 68.774697-68.774697zM1448.078884 114.735628A68.822326 68.822326 0 0 0 1379.304186 45.96093a68.893767 68.893767 0 0 0-68.798512 68.774698 68.893767 68.893767 0 0 0 68.798512 68.774698 68.822326 68.822326 0 0 0 68.774698-68.774698zM1291.359256 68.869953A68.869953 68.869953 0 0 0 1222.560744 0.095256a68.869953 68.869953 0 0 0-68.798511 68.774697 68.84614 68.84614 0 0 0 68.822325 68.798512 68.869953 68.869953 0 0 0 68.774698-68.798512zM898.429023 114.735628a114.735628 114.735628 0 0 0 114.640372 114.640372 114.759442 114.759442 0 0 0 114.640372-114.640372A114.759442 114.759442 0 0 0 1013.069395 0.095256a114.735628 114.735628 0 0 0-114.640372 114.640372z" fill="#2476FF" p-id="54667"></path><path d="M714.609116 20.027535c12.549953 18.384372 19.932279 40.555163 19.932279 64.464372a114.735628 114.735628 0 0 1-114.640372 114.640372 113.949767 113.949767 0 0 1-64.464372-19.932279 114.545116 114.545116 0 0 0 209.324651-64.464372A114.545116 114.545116 0 0 0 714.63293 20.027535zM1077.533767 20.027535c12.549953 18.384372 19.932279 40.555163 19.93228 64.464372a114.735628 114.735628 0 0 1-114.640373 114.640372 113.973581 113.973581 0 0 1-64.464372-19.932279 114.545116 114.545116 0 0 0 209.348465-64.464372A114.545116 114.545116 0 0 0 1077.533767 20.027535z" fill="#060606" opacity=".35" p-id="54668"></path><path d="M1183.839256 422.340465c-9.692279 0-19.051163-5.096186-24.075907-14.193116-2.143256-3.834047-20.337116-38.578605-6.358326-76.418977 9.739907-26.362047 31.767814-46.103814 65.464558-58.725209a27.695628 27.695628 0 1 1 19.432186 51.914418c-17.741395 6.667907-28.79107 15.312372-32.768 25.71907-5.548651 14.478884 2.810047 30.791442 2.881489 30.95814a27.862326 27.862326 0 0 1-24.576 40.745674zM215.135256 488.32893a27.671814 27.671814 0 0 1-27.457489-31.672558c0.690605-4.643721 17.765209-114.56893 112.830512-150.146977a27.695628 27.695628 0 1 1 19.456 51.914419c-64.083349 24.004465-77.300093 105.543442-77.442977 106.353116-2.095628 13.716837-13.907349 23.575814-27.386046 23.575814z" fill="#EDEDED" p-id="54669"></path></svg>